<?xml version="1.0" encoding="UTF-8"?>
<svg xmlns="http://www.w3.org/2000/svg" viewBox="0 0 1080 600" role="img"
     aria-label="CUTLASS sparse 2:4 kernels M-scaling efficiency">
  <defs>
    <linearGradient id="r1G" x1="0" y1="0" x2="0" y2="1">
      <stop offset="0" stop-color="#FFE4E6"/><stop offset="1" stop-color="#FFF1F2"/>
    </linearGradient>
    <linearGradient id="r2G" x1="0" y1="0" x2="0" y2="1">
      <stop offset="0" stop-color="#FEF3C7"/><stop offset="1" stop-color="#FFFBEB"/>
    </linearGradient>
    <linearGradient id="r3G" x1="0" y1="0" x2="0" y2="1">
      <stop offset="0" stop-color="#E9F3D2"/><stop offset="1" stop-color="#F4FAE2"/>
    </linearGradient>
    <style><![CDATA[
      .ttl{font:600 14px "Fraunces",serif;fill:#0b1220}
      .sub{font:italic 11.5px "Fraunces",serif;fill:#5b6679}
      .axL{font:500 10.5px "JetBrains Mono",monospace;fill:#5b6679}
      .axTtl{font:600 10.5px "JetBrains Mono",monospace;fill:#5b6679;letter-spacing:0.06em}
      .lbl{font:600 11.5px "Fraunces",serif;fill:#0b1220}
      .lbl-sm{font:500 10px "JetBrains Mono",monospace;fill:#5b6679}
      .pillR{font:600 10.5px "JetBrains Mono",monospace;letter-spacing:0.06em;text-transform:uppercase}
      .legend{font:500 10.5px "JetBrains Mono",monospace;fill:#2a3548}
      .legend-sub{font:500 9.5px "JetBrains Mono",monospace;fill:#5b6679}
      .ann{font:italic 10.5px "Fraunces",serif;fill:#5b6679}
      .star{font:600 10px "JetBrains Mono",monospace}
    ]]></style>
  </defs>
  <rect width="1080" height="600" fill="#ffffff"/>
  <text x="36" y="32" class="ttl">CUTLASS Sparse 2:4 Kernels — M-Scaling Efficiency</text>
  <text x="36" y="52" class="sub">Sparse FP8 / MXFP4 / NVFP4 (128×128×256 CTA, 2:4 metadata path) across the 588-shape sweep</text>

  <rect x="80.0" y="80" width="192.80971222277992" height="360" fill="url(#r1G)" opacity="0.55"/>
  <rect x="272.8097122227799" y="80" width="321.34952037129995" height="360" fill="url(#r2G)" opacity="0.55"/>
  <rect x="594.1592325940799" y="80" width="385.61942444555996" height="360" fill="url(#r3G)" opacity="0.55"/>
  <text x="176.40485611138996" y="98" class="pillR" fill="#9f1239" text-anchor="middle">REGIME 1 · LAUNCH</text>
  <text x="433.4844724084299" y="98" class="pillR" fill="#92400e" text-anchor="middle">REGIME 2 · OCCUPANCY</text>
  <text x="786.9689448168599" y="98" class="pillR" fill="#5a8e00" text-anchor="middle">REGIME 3 · TC PEAK</text>

  <line x1="80" y1="440" x2="980" y2="440" stroke="#5b6679" stroke-width="1.2"/>
  <line x1="80" y1="80" x2="80" y2="440" stroke="#5b6679" stroke-width="1.2"/>
  <line x1="80" y1="440" x2="980" y2="440" stroke="#e6e4da" stroke-dasharray="3 3"/>
  <text x="72" y="444" class="axL" text-anchor="end">0%</text>
  <line x1="80" y1="365" x2="980" y2="365" stroke="#e6e4da" stroke-dasharray="3 3"/>
  <text x="72" y="369" class="axL" text-anchor="end">25%</text>
  <line x1="80" y1="290" x2="980" y2="290" stroke="#e6e4da" stroke-dasharray="3 3"/>
  <text x="72" y="294" class="axL" text-anchor="end">50%</text>
  <line x1="80" y1="215" x2="980" y2="215" stroke="#e6e4da" stroke-dasharray="3 3"/>
  <text x="72" y="219" class="axL" text-anchor="end">75%</text>
  <line x1="80" y1="140" x2="980" y2="140" stroke="#e6e4da" stroke-dasharray="3 3"/>
  <text x="72" y="144" class="axL" text-anchor="end">100%</text>
  <line x1="80.0" y1="440" x2="80.0" y2="446" stroke="#5b6679"/>
  <text x="80.0" y="460" class="axL" text-anchor="middle">1</text>
  <line x1="272.8097122227799" y1="440" x2="272.8097122227799" y2="446" stroke="#5b6679"/>
  <text x="272.8097122227799" y="460" class="axL" text-anchor="middle">8</text>
  <line x1="401.34952037129995" y1="440" x2="401.34952037129995" y2="446" stroke="#5b6679"/>
  <text x="401.34952037129995" y="460" class="axL" text-anchor="middle">32</text>
  <line x1="465.6194244455599" y1="440" x2="465.6194244455599" y2="446" stroke="#5b6679"/>
  <text x="465.6194244455599" y="460" class="axL" text-anchor="middle">64</text>
  <line x1="529.8893285198199" y1="440" x2="529.8893285198199" y2="446" stroke="#5b6679"/>
  <text x="529.8893285198199" y="460" class="axL" text-anchor="middle">128</text>
  <line x1="594.1592325940799" y1="440" x2="594.1592325940799" y2="446" stroke="#5b6679"/>
  <text x="594.1592325940799" y="460" class="axL" text-anchor="middle">256</text>
  <line x1="722.6990407425999" y1="440" x2="722.6990407425999" y2="446" stroke="#5b6679"/>
  <text x="722.6990407425999" y="460" class="axL" text-anchor="middle">1K</text>
  <line x1="851.2388488911198" y1="440" x2="851.2388488911198" y2="446" stroke="#5b6679"/>
  <text x="851.2388488911198" y="460" class="axL" text-anchor="middle">4K</text>
  <line x1="979.7786570396398" y1="440" x2="979.7786570396398" y2="446" stroke="#5b6679"/>
  <text x="979.7786570396398" y="460" class="axL" text-anchor="middle">16K</text>
  <text x="530" y="478" class="axTtl" text-anchor="middle">M  (output rows, log scale)</text>
  <text x="36" y="260" class="axTtl" text-anchor="middle" transform="rotate(-90,36,260)">% TC peak efficiency</text>
  <path d="M 787.0 253.4 L 824.6 251.3 L 851.2 249.8 L 915.5 248.9" fill="none" stroke="#c2410c" stroke-width="2.2" stroke-dasharray="5 3"/>
  <circle cx="787.0" cy="253.4" r="4" fill="#c2410c" stroke="#fff" stroke-width="1.3"/>
  <circle cx="824.6" cy="251.3" r="4" fill="#c2410c" stroke="#fff" stroke-width="1.3"/>
  <circle cx="851.2" cy="249.8" r="4" fill="#c2410c" stroke="#fff" stroke-width="1.3"/>
  <circle cx="915.5" cy="248.9" r="4" fill="#c2410c" stroke="#fff" stroke-width="1.3"/>
  <path d="M 80.0 439.4 L 272.8 434.6 L 401.3 418.4 L 465.6 395.9 L 529.9 351.2 L 594.2 312.8 L 722.7 273.2 L 787.0 258.8 L 824.6 254.9 L 851.2 258.5 L 915.5 255.2" fill="none" stroke="#6d28d9" stroke-width="2.2"/>
  <circle cx="80.0" cy="439.4" r="4" fill="#6d28d9" stroke="#fff" stroke-width="1.3"/>
  <circle cx="272.8" cy="434.6" r="4" fill="#6d28d9" stroke="#fff" stroke-width="1.3"/>
  <circle cx="401.3" cy="418.4" r="4" fill="#6d28d9" stroke="#fff" stroke-width="1.3"/>
  <circle cx="465.6" cy="395.9" r="4" fill="#6d28d9" stroke="#fff" stroke-width="1.3"/>
  <circle cx="529.9" cy="351.2" r="4" fill="#6d28d9" stroke="#fff" stroke-width="1.3"/>
  <circle cx="594.2" cy="312.8" r="4" fill="#6d28d9" stroke="#fff" stroke-width="1.3"/>
  <circle cx="722.7" cy="273.2" r="4" fill="#6d28d9" stroke="#fff" stroke-width="1.3"/>
  <circle cx="787.0" cy="258.8" r="4" fill="#6d28d9" stroke="#fff" stroke-width="1.3"/>
  <circle cx="824.6" cy="254.9" r="4" fill="#6d28d9" stroke="#fff" stroke-width="1.3"/>
  <circle cx="851.2" cy="258.5" r="4" fill="#6d28d9" stroke="#fff" stroke-width="1.3"/>
  <circle cx="915.5" cy="255.2" r="4" fill="#6d28d9" stroke="#fff" stroke-width="1.3"/>
  <path d="M 529.9 367.1 L 594.2 343.7 L 722.7 323.9 L 787.0 320.3 L 824.6 318.2" fill="none" stroke="#8b5cf6" stroke-width="2.2"/>
  <circle cx="529.9" cy="367.1" r="4" fill="#8b5cf6" stroke="#fff" stroke-width="1.3"/>
  <circle cx="594.2" cy="343.7" r="4" fill="#8b5cf6" stroke="#fff" stroke-width="1.3"/>
  <circle cx="722.7" cy="323.9" r="4" fill="#8b5cf6" stroke="#fff" stroke-width="1.3"/>
  <circle cx="787.0" cy="320.3" r="4" fill="#8b5cf6" stroke="#fff" stroke-width="1.3"/>
  <circle cx="824.6" cy="318.2" r="4" fill="#8b5cf6" stroke="#fff" stroke-width="1.3"/>
  <text x="824.5644286252477" y="240.89999999999998" class="star" fill="#6d28d9" text-anchor="middle">★ 1318 T @ 61.7%</text>
  <text x="824.5644286252477" y="340.2" class="star" fill="#7c3aed" text-anchor="middle">★ 866 T @ 40.6%</text>
  <text x="915.5087529653798" y="270.89999999999998" class="star" fill="#9a3412" text-anchor="middle">★ 682 T @ ≈64%</text>
  <rect x="80" y="510" width="14" height="10" rx="2" fill="#6d28d9"/>
  <text x="102" y="519" class="legend">Sparse MXFP4 (warp-spec)</text>
  <text x="102" y="534" class="legend-sub">1318 T peak · M=3072 · 504/588</text>
  <rect x="390" y="510" width="14" height="10" rx="2" fill="#8b5cf6"/>
  <text x="412" y="519" class="legend">Sparse NVFP4 (OMMA.SF.SP)</text>
  <text x="412" y="534" class="legend-sub">866 T peak · M=3072 · 503/588</text>
  <rect x="700" y="510" width="14" height="10" rx="2" fill="#c2410c"/>
  <text x="722" y="519" class="legend">Sparse FP8 (QMMA.SP) — dashed</text>
  <text x="722" y="534" class="legend-sub">682 T peak · M=8192 · 511/588</text>

  <text x="36" y="555" class="ann">All three sparse kernels reject K=128 shapes (84/588) due to the doubled CTA-K=256 metadata constraint.</text>
  <text x="36" y="571" class="ann">Sparse 2:4 never reaches the theoretical 2× density gain (max 1.45× vs dense FP8); 2:4 metadata pipeline is the dominant bottleneck.</text>
</svg>
