<?xml version="1.0" encoding="UTF-8"?>
<svg xmlns="http://www.w3.org/2000/svg" viewBox="0 0 1080 600" role="img"
     aria-label="CUTLASS dense kernels M-scaling efficiency">
  <defs>
    <linearGradient id="r1G" x1="0" y1="0" x2="0" y2="1">
      <stop offset="0" stop-color="#FFE4E6"/><stop offset="1" stop-color="#FFF1F2"/>
    </linearGradient>
    <linearGradient id="r2G" x1="0" y1="0" x2="0" y2="1">
      <stop offset="0" stop-color="#FEF3C7"/><stop offset="1" stop-color="#FFFBEB"/>
    </linearGradient>
    <linearGradient id="r3G" x1="0" y1="0" x2="0" y2="1">
      <stop offset="0" stop-color="#E9F3D2"/><stop offset="1" stop-color="#F4FAE2"/>
    </linearGradient>
    <style><![CDATA[
      .ttl{font:600 14px "Fraunces",serif;fill:#0b1220}
      .sub{font:italic 11.5px "Fraunces",serif;fill:#5b6679}
      .axL{font:500 10.5px "JetBrains Mono",monospace;fill:#5b6679}
      .axTtl{font:600 10.5px "JetBrains Mono",monospace;fill:#5b6679;letter-spacing:0.06em}
      .lbl{font:600 11.5px "Fraunces",serif;fill:#0b1220}
      .lbl-sm{font:500 10px "JetBrains Mono",monospace;fill:#5b6679}
      .pillR{font:600 10.5px "JetBrains Mono",monospace;letter-spacing:0.06em;text-transform:uppercase}
      .legend{font:500 10.5px "JetBrains Mono",monospace;fill:#2a3548}
      .legend-sub{font:500 9.5px "JetBrains Mono",monospace;fill:#5b6679}
      .ann{font:italic 10.5px "Fraunces",serif;fill:#5b6679}
      .star{font:600 10px "JetBrains Mono",monospace}
    ]]></style>
  </defs>
  <rect width="1080" height="600" fill="#ffffff"/>
  <text x="36" y="32" class="ttl">CUTLASS Dense Kernels — M-Scaling Efficiency</text>
  <text x="36" y="52" class="sub">FP8 blockwise (128×128×128 coop) and MXFP4 (256×128×128 coop) across the 588-shape sweep</text>

  <rect x="80.0" y="80" width="192.80971222277992" height="360" fill="url(#r1G)" opacity="0.55"/>
  <rect x="272.8097122227799" y="80" width="321.34952037129995" height="360" fill="url(#r2G)" opacity="0.55"/>
  <rect x="594.1592325940799" y="80" width="385.61942444555996" height="360" fill="url(#r3G)" opacity="0.55"/>
  <text x="176.40485611138996" y="98" class="pillR" fill="#9f1239" text-anchor="middle">REGIME 1 · LAUNCH</text>
  <text x="433.4844724084299" y="98" class="pillR" fill="#92400e" text-anchor="middle">REGIME 2 · OCCUPANCY</text>
  <text x="786.9689448168599" y="98" class="pillR" fill="#5a8e00" text-anchor="middle">REGIME 3 · TC PEAK</text>

  <line x1="80" y1="440" x2="980" y2="440" stroke="#5b6679" stroke-width="1.2"/>
  <line x1="80" y1="80" x2="80" y2="440" stroke="#5b6679" stroke-width="1.2"/>
  <line x1="80" y1="440" x2="980" y2="440" stroke="#e6e4da" stroke-dasharray="3 3"/>
  <text x="72" y="444" class="axL" text-anchor="end">0%</text>
  <line x1="80" y1="365" x2="980" y2="365" stroke="#e6e4da" stroke-dasharray="3 3"/>
  <text x="72" y="369" class="axL" text-anchor="end">25%</text>
  <line x1="80" y1="290" x2="980" y2="290" stroke="#e6e4da" stroke-dasharray="3 3"/>
  <text x="72" y="294" class="axL" text-anchor="end">50%</text>
  <line x1="80" y1="215" x2="980" y2="215" stroke="#e6e4da" stroke-dasharray="3 3"/>
  <text x="72" y="219" class="axL" text-anchor="end">75%</text>
  <line x1="80" y1="140" x2="980" y2="140" stroke="#e6e4da" stroke-dasharray="3 3"/>
  <text x="72" y="144" class="axL" text-anchor="end">100%</text>
  <line x1="80.0" y1="440" x2="80.0" y2="446" stroke="#5b6679"/>
  <text x="80.0" y="460" class="axL" text-anchor="middle">1</text>
  <line x1="272.8097122227799" y1="440" x2="272.8097122227799" y2="446" stroke="#5b6679"/>
  <text x="272.8097122227799" y="460" class="axL" text-anchor="middle">8</text>
  <line x1="401.34952037129995" y1="440" x2="401.34952037129995" y2="446" stroke="#5b6679"/>
  <text x="401.34952037129995" y="460" class="axL" text-anchor="middle">32</text>
  <line x1="465.6194244455599" y1="440" x2="465.6194244455599" y2="446" stroke="#5b6679"/>
  <text x="465.6194244455599" y="460" class="axL" text-anchor="middle">64</text>
  <line x1="529.8893285198199" y1="440" x2="529.8893285198199" y2="446" stroke="#5b6679"/>
  <text x="529.8893285198199" y="460" class="axL" text-anchor="middle">128</text>
  <line x1="594.1592325940799" y1="440" x2="594.1592325940799" y2="446" stroke="#5b6679"/>
  <text x="594.1592325940799" y="460" class="axL" text-anchor="middle">256</text>
  <line x1="722.6990407425999" y1="440" x2="722.6990407425999" y2="446" stroke="#5b6679"/>
  <text x="722.6990407425999" y="460" class="axL" text-anchor="middle">1K</text>
  <line x1="851.2388488911198" y1="440" x2="851.2388488911198" y2="446" stroke="#5b6679"/>
  <text x="851.2388488911198" y="460" class="axL" text-anchor="middle">4K</text>
  <line x1="979.7786570396398" y1="440" x2="979.7786570396398" y2="446" stroke="#5b6679"/>
  <text x="979.7786570396398" y="460" class="axL" text-anchor="middle">16K</text>
  <text x="530" y="478" class="axTtl" text-anchor="middle">M  (output rows, log scale)</text>
  <text x="36" y="260" class="axTtl" text-anchor="middle" transform="rotate(-90,36,260)">% TC peak efficiency</text>
  <path d="M 80.0 439.1 L 272.8 432.5 L 401.3 410.0 L 465.6 380.3 L 529.9 321.8 L 594.2 240.2 L 722.7 178.7 L 787.0 162.5 L 824.6 157.7 L 851.2 161.3 L 979.8 160.4" fill="none" stroke="#ea580c" stroke-width="2.2"/>
  <circle cx="80.0" cy="439.1" r="4" fill="#ea580c" stroke="#fff" stroke-width="1.3"/>
  <circle cx="272.8" cy="432.5" r="4" fill="#ea580c" stroke="#fff" stroke-width="1.3"/>
  <circle cx="401.3" cy="410.0" r="4" fill="#ea580c" stroke="#fff" stroke-width="1.3"/>
  <circle cx="465.6" cy="380.3" r="4" fill="#ea580c" stroke="#fff" stroke-width="1.3"/>
  <circle cx="529.9" cy="321.8" r="4" fill="#ea580c" stroke="#fff" stroke-width="1.3"/>
  <circle cx="594.2" cy="240.2" r="4" fill="#ea580c" stroke="#fff" stroke-width="1.3"/>
  <circle cx="722.7" cy="178.7" r="4" fill="#ea580c" stroke="#fff" stroke-width="1.3"/>
  <circle cx="787.0" cy="162.5" r="4" fill="#ea580c" stroke="#fff" stroke-width="1.3"/>
  <circle cx="824.6" cy="157.7" r="4" fill="#ea580c" stroke="#fff" stroke-width="1.3"/>
  <circle cx="851.2" cy="161.3" r="4" fill="#ea580c" stroke="#fff" stroke-width="1.3"/>
  <circle cx="979.8" cy="160.4" r="4" fill="#ea580c" stroke="#fff" stroke-width="1.3"/>
  <path d="M 80.0 439.4 L 272.8 435.8 L 401.3 418.7 L 465.6 398.0 L 529.9 357.2 L 594.2 278.6 L 722.7 164.6 L 787.0 160.1 L 824.6 138.2 L 851.2 141.5 L 979.8 139.7" fill="none" stroke="#5a8e00" stroke-width="2.2"/>
  <circle cx="80.0" cy="439.4" r="4" fill="#5a8e00" stroke="#fff" stroke-width="1.3"/>
  <circle cx="272.8" cy="435.8" r="4" fill="#5a8e00" stroke="#fff" stroke-width="1.3"/>
  <circle cx="401.3" cy="418.7" r="4" fill="#5a8e00" stroke="#fff" stroke-width="1.3"/>
  <circle cx="465.6" cy="398.0" r="4" fill="#5a8e00" stroke="#fff" stroke-width="1.3"/>
  <circle cx="529.9" cy="357.2" r="4" fill="#5a8e00" stroke="#fff" stroke-width="1.3"/>
  <circle cx="594.2" cy="278.6" r="4" fill="#5a8e00" stroke="#fff" stroke-width="1.3"/>
  <circle cx="722.7" cy="164.6" r="4" fill="#5a8e00" stroke="#fff" stroke-width="1.3"/>
  <circle cx="787.0" cy="160.1" r="4" fill="#5a8e00" stroke="#fff" stroke-width="1.3"/>
  <circle cx="824.6" cy="138.2" r="4" fill="#5a8e00" stroke="#fff" stroke-width="1.3"/>
  <circle cx="851.2" cy="141.5" r="4" fill="#5a8e00" stroke="#fff" stroke-width="1.3"/>
  <circle cx="979.8" cy="139.7" r="4" fill="#5a8e00" stroke="#fff" stroke-width="1.3"/>
  <text x="824.5644286252477" y="124.20000000000005" class="star" fill="#5a8e00" text-anchor="middle">★ 1076.5 T @ 100.6%</text>
  <text x="824.5644286252477" y="179.70000000000005" class="star" fill="#9a3412" text-anchor="middle">★ 504.3 T @ 94.1%</text>
  <rect x="80" y="510" width="14" height="10" rx="2" fill="#ea580c"/>
  <text x="102" y="519" class="legend">FP8 blockwise (QMMA.16832)</text>
  <text x="102" y="534" class="legend-sub">504.3 T peak · M=3072 · 588/588</text>
  <rect x="390" y="510" width="14" height="10" rx="2" fill="#5a8e00"/>
  <text x="412" y="519" class="legend">MXFP4 (OMMA.SF.16864)</text>
  <text x="412" y="534" class="legend-sub">1076.5 T peak · M=3072 · 588/588</text>

  <text x="36" y="555" class="ann">MXFP4 reaches 100.6% via free-boost above the 2.572 GHz pinned clock; </text>
  <text x="36" y="571" class="ann">FP8 saturates earlier (M≥1024 ≥87%) since its 128×128 tile fills 110 SMs at smaller M than MXFP4’s 256×128.</text>
</svg>
