<?xml version="1.0" encoding="UTF-8"?>
<svg xmlns="http://www.w3.org/2000/svg" viewBox="0 0 1080 680" role="img" aria-label="SM_120 FP32 (FFMA) 4-Stage Pipeline Model with ILP Utilization Visualization">
  <defs>
    <marker id="arr" markerWidth="7" markerHeight="5" refX="7" refY="2.5" orient="auto">
      <path d="M0,0 L7,2.5 L0,5 Z" fill="#475569"/>
    </marker>
  </defs>

  <rect width="1080" height="680" fill="#fafbfc"/>

  <!-- Title -->
  <text x="540" y="30" text-anchor="middle" style="font:700 15px 'Inter','Segoe UI',sans-serif;fill:#0f172a">FP32 (FFMA) 4-Stage Pipeline Model &amp; ILP Utilization</text>
  <text x="540" y="50" text-anchor="middle" style="font:italic 11px 'Inter','Segoe UI',sans-serif;fill:#64748b">Measured pipeline depth = 4 stages; textbook ILP scaling confirms clean in-order design with no structural hazards</text>

  <!-- ═══════════════════════════════════════════════════════════ -->
  <!-- Pipeline Stages (top section) -->
  <!-- ═══════════════════════════════════════════════════════════ -->
  <text x="60" y="82" style="font:700 11px 'Inter',sans-serif;fill:#1e293b">Pipeline Stage Architecture (each stage = 1 cycle)</text>

  <!-- Stage boxes -->
  <rect x="60" y="92" width="220" height="56" rx="6" fill="#dbeafe" stroke="#2563eb" stroke-width="1.4"/>
  <text x="170" y="114" text-anchor="middle" style="font:700 11px 'JetBrains Mono',monospace;fill:#1e40af">Stage 1</text>
  <text x="170" y="132" text-anchor="middle" style="font:500 9.5px 'Inter',sans-serif;fill:#374151">Operand Collect + Decode</text>
  <text x="170" y="144" text-anchor="middle" style="font:600 9px 'JetBrains Mono',monospace;fill:#6b7280">1 cyc</text>

  <line x1="280" y1="120" x2="310" y2="120" stroke="#475569" stroke-width="1.5" marker-end="url(#arr)"/>

  <rect x="312" y="92" width="220" height="56" rx="6" fill="#dcfce7" stroke="#16a34a" stroke-width="1.4"/>
  <text x="422" y="114" text-anchor="middle" style="font:700 11px 'JetBrains Mono',monospace;fill:#166534">Stage 2</text>
  <text x="422" y="132" text-anchor="middle" style="font:500 9.5px 'Inter',sans-serif;fill:#374151">Multiply</text>
  <text x="422" y="144" text-anchor="middle" style="font:600 9px 'JetBrains Mono',monospace;fill:#6b7280">1 cyc</text>

  <line x1="532" y1="120" x2="562" y2="120" stroke="#475569" stroke-width="1.5" marker-end="url(#arr)"/>

  <rect x="564" y="92" width="220" height="56" rx="6" fill="#fef3c7" stroke="#d97706" stroke-width="1.4"/>
  <text x="674" y="114" text-anchor="middle" style="font:700 11px 'JetBrains Mono',monospace;fill:#92400e">Stage 3</text>
  <text x="674" y="132" text-anchor="middle" style="font:500 9.5px 'Inter',sans-serif;fill:#374151">Align + Add</text>
  <text x="674" y="144" text-anchor="middle" style="font:600 9px 'JetBrains Mono',monospace;fill:#6b7280">1 cyc</text>

  <line x1="784" y1="120" x2="814" y2="120" stroke="#475569" stroke-width="1.5" marker-end="url(#arr)"/>

  <rect x="816" y="92" width="220" height="56" rx="6" fill="#ede9fe" stroke="#7c3aed" stroke-width="1.4"/>
  <text x="926" y="114" text-anchor="middle" style="font:700 11px 'JetBrains Mono',monospace;fill:#5b21b6">Stage 4</text>
  <text x="926" y="132" text-anchor="middle" style="font:500 9.5px 'Inter',sans-serif;fill:#374151">Normalize + Round + WB</text>
  <text x="926" y="144" text-anchor="middle" style="font:600 9px 'JetBrains Mono',monospace;fill:#6b7280">1 cyc</text>

  <!-- Total latency annotation -->
  <rect x="60" y="156" width="976" height="2" fill="#e2e8f0"/>
  <text x="540" y="174" text-anchor="middle" style="font:600 10px 'JetBrains Mono',monospace;fill:#475569">Total latency: 4 stages × 1 cyc/stage = 4-cycle end-to-end</text>

  <!-- ═══════════════════════════════════════════════════════════ -->
  <!-- ILP Utilization Timeline (middle section) -->
  <!-- ═══════════════════════════════════════════════════════════ -->
  <text x="60" y="206" style="font:700 11px 'Inter',sans-serif;fill:#1e293b">Pipeline Occupancy at Different ILP Levels (time →)</text>

  <!-- ILP=1 timeline -->
  <text x="60" y="234" style="font:700 10px 'JetBrains Mono',monospace;fill:#dc2626">ILP=1</text>
  <text x="60" y="248" style="font:500 9px 'Inter',sans-serif;fill:#6b7280">25% util</text>

  <!-- Cycle grid for ILP=1 -->
  <g transform="translate(140,220)">
    <!-- Cycle headers -->
    <text x="12" y="0" style="font:500 8px 'JetBrains Mono',monospace;fill:#94a3b8">C1</text>
    <text x="52" y="0" style="font:500 8px 'JetBrains Mono',monospace;fill:#94a3b8">C2</text>
    <text x="92" y="0" style="font:500 8px 'JetBrains Mono',monospace;fill:#94a3b8">C3</text>
    <text x="132" y="0" style="font:500 8px 'JetBrains Mono',monospace;fill:#94a3b8">C4</text>
    <text x="172" y="0" style="font:500 8px 'JetBrains Mono',monospace;fill:#94a3b8">C5</text>
    <text x="212" y="0" style="font:500 8px 'JetBrains Mono',monospace;fill:#94a3b8">C6</text>
    <text x="252" y="0" style="font:500 8px 'JetBrains Mono',monospace;fill:#94a3b8">C7</text>
    <text x="292" y="0" style="font:500 8px 'JetBrains Mono',monospace;fill:#94a3b8">C8</text>
    <!-- Op A flows through stages -->
    <rect x="0" y="6" width="36" height="20" rx="3" fill="#2563eb" opacity="0.8"/>
    <text x="18" y="20" text-anchor="middle" style="font:700 8px 'JetBrains Mono',monospace;fill:#fff">S1</text>
    <rect x="40" y="6" width="36" height="20" rx="3" fill="#16a34a" opacity="0.8"/>
    <text x="58" y="20" text-anchor="middle" style="font:700 8px 'JetBrains Mono',monospace;fill:#fff">S2</text>
    <rect x="80" y="6" width="36" height="20" rx="3" fill="#d97706" opacity="0.8"/>
    <text x="98" y="20" text-anchor="middle" style="font:700 8px 'JetBrains Mono',monospace;fill:#fff">S3</text>
    <rect x="120" y="6" width="36" height="20" rx="3" fill="#7c3aed" opacity="0.8"/>
    <text x="138" y="20" text-anchor="middle" style="font:700 8px 'JetBrains Mono',monospace;fill:#fff">S4</text>
    <!-- 3 empty cycles then Op B -->
    <rect x="160" y="6" width="36" height="20" rx="3" fill="#e2e8f0" stroke="#94a3b8" stroke-width="0.5"/>
    <rect x="200" y="6" width="36" height="20" rx="3" fill="#e2e8f0" stroke="#94a3b8" stroke-width="0.5"/>
    <rect x="240" y="6" width="36" height="20" rx="3" fill="#e2e8f0" stroke="#94a3b8" stroke-width="0.5"/>
    <rect x="280" y="6" width="36" height="20" rx="3" fill="#e2e8f0" stroke="#94a3b8" stroke-width="0.5"/>
  </g>
  <text x="460" y="240" style="font:italic 9px 'Inter',sans-serif;fill:#dc2626">Op B waits 4 cyc for </text>
  <text x="460" y="255" style="font:italic 9px 'Inter',sans-serif;fill:#dc2626">  Op A result (dep chain) → 4 cyc/op</text>


  <!-- ILP=2 timeline -->
  <text x="60" y="282" style="font:700 10px 'JetBrains Mono',monospace;fill:#d97706">ILP=2</text>
  <text x="60" y="296" style="font:500 9px 'Inter',sans-serif;fill:#6b7280">50% util</text>

  <g transform="translate(140,268)">
    <text x="12" y="0" style="font:500 8px 'JetBrains Mono',monospace;fill:#94a3b8">C1</text>
    <text x="52" y="0" style="font:500 8px 'JetBrains Mono',monospace;fill:#94a3b8">C2</text>
    <text x="92" y="0" style="font:500 8px 'JetBrains Mono',monospace;fill:#94a3b8">C3</text>
    <text x="132" y="0" style="font:500 8px 'JetBrains Mono',monospace;fill:#94a3b8">C4</text>
    <text x="172" y="0" style="font:500 8px 'JetBrains Mono',monospace;fill:#94a3b8">C5</text>
    <text x="212" y="0" style="font:500 8px 'JetBrains Mono',monospace;fill:#94a3b8">C6</text>
    <text x="252" y="0" style="font:500 8px 'JetBrains Mono',monospace;fill:#94a3b8">C7</text>
    <text x="292" y="0" style="font:500 8px 'JetBrains Mono',monospace;fill:#94a3b8">C8</text>
    <!-- Chain A (top row) -->
    <rect x="0" y="6" width="36" height="18" rx="3" fill="#2563eb" opacity="0.8"/>
    <text x="18" y="18" text-anchor="middle" style="font:700 7px 'JetBrains Mono',monospace;fill:#fff">A:S1</text>
    <rect x="40" y="6" width="36" height="18" rx="3" fill="#16a34a" opacity="0.8"/>
    <text x="58" y="18" text-anchor="middle" style="font:700 7px 'JetBrains Mono',monospace;fill:#fff">A:S2</text>
    <rect x="80" y="6" width="36" height="18" rx="3" fill="#d97706" opacity="0.8"/>
    <text x="98" y="18" text-anchor="middle" style="font:700 7px 'JetBrains Mono',monospace;fill:#fff">A:S3</text>
    <rect x="120" y="6" width="36" height="18" rx="3" fill="#7c3aed" opacity="0.8"/>
    <text x="138" y="18" text-anchor="middle" style="font:700 7px 'JetBrains Mono',monospace;fill:#fff">A:S4</text>
    <!-- Chain B (interleaved) -->
    <rect x="40" y="28" width="36" height="18" rx="3" fill="#2563eb" opacity="0.5"/>
    <text x="58" y="40" text-anchor="middle" style="font:700 7px 'JetBrains Mono',monospace;fill:#fff">B:S1</text>
    <rect x="80" y="28" width="36" height="18" rx="3" fill="#16a34a" opacity="0.5"/>
    <text x="98" y="40" text-anchor="middle" style="font:700 7px 'JetBrains Mono',monospace;fill:#fff">B:S2</text>
    <rect x="120" y="28" width="36" height="18" rx="3" fill="#d97706" opacity="0.5"/>
    <text x="138" y="40" text-anchor="middle" style="font:700 7px 'JetBrains Mono',monospace;fill:#fff">B:S3</text>
    <rect x="160" y="28" width="36" height="18" rx="3" fill="#7c3aed" opacity="0.5"/>
    <text x="178" y="40" text-anchor="middle" style="font:700 7px 'JetBrains Mono',monospace;fill:#fff">B:S4</text>
    <!-- Repeat chain A -->
    <rect x="160" y="6" width="36" height="18" rx="3" fill="#e2e8f0" stroke="#94a3b8" stroke-width="0.5"/>
    <rect x="200" y="6" width="36" height="18" rx="3" fill="#e2e8f0" stroke="#94a3b8" stroke-width="0.5"/>
    <rect x="240" y="6" width="36" height="18" rx="3" fill="#2563eb" opacity="0.8"/>
    <text x="258" y="18" text-anchor="middle" style="font:700 7px 'JetBrains Mono',monospace;fill:#fff">A:S1</text>
    <rect x="280" y="6" width="36" height="18" rx="3" fill="#16a34a" opacity="0.8"/>
    <text x="298" y="18" text-anchor="middle" style="font:700 7px 'JetBrains Mono',monospace;fill:#fff">A:S2</text>
  </g>
  <text x="460" y="294" style="font:italic 9px 'Inter',sans-serif;fill:#d97706">2 chains alternate →</text>
  <text x="460" y="304" style="font:italic 9px 'Inter',sans-serif;fill:#d97706">2 cyc/op effective (2.00× speedup, exact)</text>

  <!-- ILP=4 timeline -->
  <text x="60" y="340" style="font:700 10px 'JetBrains Mono',monospace;fill:#16a34a">ILP=4</text>
  <text x="60" y="354" style="font:500 9px 'Inter',sans-serif;fill:#6b7280">92% util</text>

  <g transform="translate(140,326)">
    <text x="12" y="0" style="font:500 8px 'JetBrains Mono',monospace;fill:#94a3b8">C1</text>
    <text x="52" y="0" style="font:500 8px 'JetBrains Mono',monospace;fill:#94a3b8">C2</text>
    <text x="92" y="0" style="font:500 8px 'JetBrains Mono',monospace;fill:#94a3b8">C3</text>
    <text x="132" y="0" style="font:500 8px 'JetBrains Mono',monospace;fill:#94a3b8">C4</text>
    <text x="172" y="0" style="font:500 8px 'JetBrains Mono',monospace;fill:#94a3b8">C5</text>
    <text x="212" y="0" style="font:500 8px 'JetBrains Mono',monospace;fill:#94a3b8">C6</text>
    <text x="252" y="0" style="font:500 8px 'JetBrains Mono',monospace;fill:#94a3b8">C7</text>
    <text x="292" y="0" style="font:500 8px 'JetBrains Mono',monospace;fill:#94a3b8">C8</text>
    <!-- All 4 stages busy every cycle (fully pipelined) -->
    <rect x="0" y="6" width="36" height="14" rx="2" fill="#2563eb" opacity="0.85"/>
    <rect x="0" y="22" width="36" height="14" rx="2" fill="#16a34a" opacity="0.85"/>
    <rect x="0" y="38" width="36" height="14" rx="2" fill="#d97706" opacity="0.85"/>
    <rect x="0" y="54" width="36" height="14" rx="2" fill="#7c3aed" opacity="0.85"/>
    <rect x="40" y="6" width="36" height="14" rx="2" fill="#2563eb" opacity="0.85"/>
    <rect x="40" y="22" width="36" height="14" rx="2" fill="#16a34a" opacity="0.85"/>
    <rect x="40" y="38" width="36" height="14" rx="2" fill="#d97706" opacity="0.85"/>
    <rect x="40" y="54" width="36" height="14" rx="2" fill="#7c3aed" opacity="0.85"/>
    <rect x="80" y="6" width="36" height="14" rx="2" fill="#2563eb" opacity="0.85"/>
    <rect x="80" y="22" width="36" height="14" rx="2" fill="#16a34a" opacity="0.85"/>
    <rect x="80" y="38" width="36" height="14" rx="2" fill="#d97706" opacity="0.85"/>
    <rect x="80" y="54" width="36" height="14" rx="2" fill="#7c3aed" opacity="0.85"/>
    <rect x="120" y="6" width="36" height="14" rx="2" fill="#2563eb" opacity="0.85"/>
    <rect x="120" y="22" width="36" height="14" rx="2" fill="#16a34a" opacity="0.85"/>
    <rect x="120" y="38" width="36" height="14" rx="2" fill="#d97706" opacity="0.85"/>
    <rect x="120" y="54" width="36" height="14" rx="2" fill="#7c3aed" opacity="0.85"/>
    <rect x="160" y="6" width="36" height="14" rx="2" fill="#2563eb" opacity="0.85"/>
    <rect x="160" y="22" width="36" height="14" rx="2" fill="#16a34a" opacity="0.85"/>
    <rect x="160" y="38" width="36" height="14" rx="2" fill="#d97706" opacity="0.85"/>
    <rect x="160" y="54" width="36" height="14" rx="2" fill="#7c3aed" opacity="0.85"/>
    <rect x="200" y="6" width="36" height="14" rx="2" fill="#2563eb" opacity="0.85"/>
    <rect x="200" y="22" width="36" height="14" rx="2" fill="#16a34a" opacity="0.85"/>
    <rect x="200" y="38" width="36" height="14" rx="2" fill="#d97706" opacity="0.85"/>
    <rect x="200" y="54" width="36" height="14" rx="2" fill="#7c3aed" opacity="0.85"/>
    <rect x="240" y="6" width="36" height="14" rx="2" fill="#2563eb" opacity="0.85"/>
    <rect x="240" y="22" width="36" height="14" rx="2" fill="#16a34a" opacity="0.85"/>
    <rect x="240" y="38" width="36" height="14" rx="2" fill="#d97706" opacity="0.85"/>
    <rect x="240" y="54" width="36" height="14" rx="2" fill="#7c3aed" opacity="0.85"/>
    <rect x="280" y="6" width="36" height="14" rx="2" fill="#2563eb" opacity="0.85"/>
    <rect x="280" y="22" width="36" height="14" rx="2" fill="#16a34a" opacity="0.85"/>
    <rect x="280" y="38" width="36" height="14" rx="2" fill="#d97706" opacity="0.85"/>
    <rect x="280" y="54" width="36" height="14" rx="2" fill="#7c3aed" opacity="0.85"/>
    <!-- Stage labels on right -->
    <text x="324" y="16" style="font:500 8px 'JetBrains Mono',monospace;fill:#2563eb">S1</text>
    <text x="324" y="32" style="font:500 8px 'JetBrains Mono',monospace;fill:#16a34a">S2</text>
    <text x="324" y="48" style="font:500 8px 'JetBrains Mono',monospace;fill:#d97706">S3</text>
    <text x="324" y="64" style="font:500 8px 'JetBrains Mono',monospace;fill:#7c3aed">S4</text>
  </g>
  
  <text x="480" y="362" style="font:italic 9px 'Inter',sans-serif;fill:#16a34a">All 4 stages busy every cycle → </text>
  <text x="480" y="375" style="font:italic 9px 'Inter',sans-serif;fill:#16a34a"> 1.09 cyc/op (92% of theoretical 1.0)</text>

  <!-- ═══════════════════════════════════════════════════════════ -->
  <!-- ILP Scaling Summary (right panel) -->
  <!-- ═══════════════════════════════════════════════════════════ -->
  <rect x="650" y="196" width="420" height="200" rx="8" fill="#f8fafc" stroke="#94a3b8" stroke-width="0.8"/>
  <text x="830" y="218" text-anchor="middle" style="font:700 11px 'Inter',sans-serif;fill:#1e293b">Measured ILP Scaling (Case 23)</text>

  <!-- Scaling bars -->
  <g transform="translate(660,230)">
    <!-- ILP=1 -->
    <text x="0" y="12" style="font:600 9px 'JetBrains Mono',monospace;fill:#374151">ILP=1:</text>
    <rect x="55" y="2" width="60" height="14" rx="2" fill="#dc2626" opacity="0.7"/>
    <text x="120" y="13" style="font:500 9px 'JetBrains Mono',monospace;fill:#374151">3.98 c/op  1.00×  25%</text>

    <!-- ILP=2 -->
    <text x="0" y="34" style="font:600 9px 'JetBrains Mono',monospace;fill:#374151">ILP=2:</text>
    <rect x="55" y="24" width="120" height="14" rx="2" fill="#d97706" opacity="0.7"/>
    <text x="180" y="35" style="font:500 9px 'JetBrains Mono',monospace;fill:#374151">1.99 c/op  2.00×  50%</text>

    <!-- ILP=4 -->
    <text x="0" y="56" style="font:600 9px 'JetBrains Mono',monospace;fill:#374151">ILP=4:</text>
    <rect x="55" y="46" width="220" height="14" rx="2" fill="#16a34a" opacity="0.7"/>
    <text x="280" y="57" style="font:500 9px 'JetBrains Mono',monospace;fill:#374151">1.09 c/op  3.67×  92%</text>

    <!-- ILP=8 -->
    <text x="0" y="78" style="font:600 9px 'JetBrains Mono',monospace;fill:#374151">ILP=8:</text>
    <rect x="55" y="68" width="220" height="14" rx="2" fill="#16a34a" opacity="0.5"/>
    <text x="280" y="79" style="font:500 9px 'JetBrains Mono',monospace;fill:#374151">1.09 c/op  3.67×  92%</text>

    <!-- ILP=16 -->
    <text x="0" y="100" style="font:600 9px 'JetBrains Mono',monospace;fill:#374151">ILP=16:</text>
    <rect x="55" y="90" width="220" height="14" rx="2" fill="#16a34a" opacity="0.3"/>
    <text x="280" y="101" style="font:500 9px 'JetBrains Mono',monospace;fill:#374151">1.09 c/op  3.67×  92%</text>
  </g>

  <!-- Saturation indicator -->
  <rect x="660" y="344" width="380" height="40" rx="4" fill="#f0fdf4" stroke="#16a34a" stroke-width="0.8"/>
  <text x="830" y="362" text-anchor="middle" style="font:600 10px 'Inter',sans-serif;fill:#166534">Saturation at ILP=4 → No benefit beyond 4 independent chains</text>
  <text x="830" y="378" text-anchor="middle" style="font:400 9px 'Inter',sans-serif;fill:#6b7280">Pipeline depth = latency / issue rate = 4 / 1 = 4 (confirmed)</text>

  <!-- ═══════════════════════════════════════════════════════════ -->
  <!-- Dispatch Tax Explanation (bottom section) -->
  <!-- ═══════════════════════════════════════════════════════════ -->
  <rect x="60" y="420" width="980" height="120" rx="8" fill="#fef2f2" stroke="#fecaca" stroke-width="1"/>
  <text x="80" y="444" style="font:700 11px 'Inter',sans-serif;fill:#991b1b">Why 92% and not 100%? — The 7% Dispatch Tax</text>

  <g transform="translate(80,456)">
    <text x="0" y="14" style="font:500 10px 'JetBrains Mono',monospace;fill:#374151">128 FFMA ops completed in 139 cycles (measured at ILP=4)</text>
    <text x="0" y="34" style="font:500 10px 'JetBrains Mono',monospace;fill:#374151">Extra cycles = 139 - 128 = 11 cycles overhead breakdown:</text>
    <text x="20" y="54" style="font:500 10px 'JetBrains Mono',monospace;fill:#6b7280">• 2 cyc: clock64() measurement instrumentation overhead</text>
    <text x="20" y="72" style="font:500 10px 'JetBrains Mono',monospace;fill:#6b7280">• ~9 cyc: loop control instructions (BRA, ISETP) consuming issue slots</text>
  </g>
  <rect x="680" y="456" width="340" height="66" rx="5" fill="#ffffff" stroke="#fecaca" stroke-width="0.8"/>
  <text x="850" y="476" text-anchor="middle" style="font:700 10px 'JetBrains Mono',monospace;fill:#991b1b">Dispatch Tax = 11/139 = 7.9%</text>
  <text x="850" y="496" text-anchor="middle" style="font:500 9.5px 'Inter',sans-serif;fill:#374151">Pipeline itself is 100% saturated —</text>
  <text x="850" y="512" text-anchor="middle" style="font:500 9.5px 'Inter',sans-serif;fill:#374151">loss is in instruction mix, not pipe capacity</text>

  <!-- ═══════════════════════════════════════════════════════════ -->
  <!-- Key Insights (bottom) -->
  <!-- ═══════════════════════════════════════════════════════════ -->
  <rect x="60" y="556" width="980" height="118" rx="8" fill="#eff6ff" stroke="#bfdbfe" stroke-width="1"/>
  <text x="80" y="578" style="font:700 11px 'Inter',sans-serif;fill:#1d4ed8">Key Architectural Insights</text>

  <g transform="translate(80,588)">
    <text x="0" y="12" style="font:500 10px 'Inter',sans-serif;fill:#374151">• <tspan style="font-weight:700">ILP=2 → 2.00× (exact)</tspan>: Perfect doubling proves zero structural hazards — clean in-order pipeline with no write-back port conflicts.</text>
    <text x="0" y="32" style="font:500 10px 'Inter',sans-serif;fill:#374151">• <tspan style="font-weight:700">Shallow depth (4 vs 8+ on Ampere/Hopper)</tspan>: SM_120 trades depth for lower latency; only 4 independent chains needed for saturation.</text>
    <text x="0" y="52" style="font:500 10px 'Inter',sans-serif;fill:#374151">• <tspan style="font-weight:700">Practical implication</tspan>: Kernel register pressure is modest — 4 accumulators (not 8+) suffice for peak FP32 throughput per warp.</text>
    <text x="0" y="72" style="font:500 10px 'Inter',sans-serif;fill:#374151">• <tspan style="font-weight:700">IADD3 is even shallower</tspan>: Only ILP=2 needed (2-stage pipe) — address computation saturates with minimal register pressure.</text>
  </g>
</svg>
