<?xml version="1.0" encoding="UTF-8"?>
<svg xmlns="http://www.w3.org/2000/svg" viewBox="0 0 1080 730" role="img" aria-label="SM_120 SFU Pipeline Model — PTX rcp.approx.f32 SASS Decomposition, Critical Path, and ILP Overlap">
  <defs>
    <marker id="arr" markerWidth="7" markerHeight="5" refX="7" refY="2.5" orient="auto">
      <path d="M0,0 L7,2.5 L0,5 Z" fill="#475569"/>
    </marker>
  </defs>

  <rect width="1080" height="730" fill="#fafbfc"/>

  <!-- Title -->
  <text x="540" y="28" text-anchor="middle" style="font:700 15px 'Inter','Segoe UI',sans-serif;fill:#0f172a">SM_120 SFU Pipeline — Why PTX rcp.approx Costs 47 Cycles (7 SASS Instructions)</text>
  <text x="540" y="48" text-anchor="middle" style="font:italic 11px 'Inter','Segoe UI',sans-serif;fill:#64748b">Range-reduction wrapper dominates: bare MUFU = 18c, full PTX expansion = 46.8c (2.6× overhead)</text>

  <!-- ═══════ Top-Left: Algorithm Background ═══════ -->
  <rect x="30" y="64" width="500" height="200" rx="8" fill="#eff6ff" stroke="#bfdbfe" stroke-width="1"/>
  <text x="280" y="86" text-anchor="middle" style="font:700 11.5px 'Inter',sans-serif;fill:#1d4ed8">Why rcp.approx Needs a Wrapper: The Algorithm</text>

  <g transform="translate(46,96)">
    <text x="0" y="14" style="font:600 10px 'Inter',sans-serif;fill:#1e293b">MUFU.RCP computes 1/x using a minimax polynomial lookup table:</text>
    <text x="0" y="34" style="font:500 9.5px 'JetBrains Mono',monospace;fill:#374151">  result ≈ LUT[mantissa_bits] × 2^(-exponent)</text>
    <text x="0" y="56" style="font:600 10px 'Inter',sans-serif;fill:#1e293b">But the hardware LUT has a limited input range [1.0, 2.0):</text>
    <text x="0" y="76" style="font:500 9.5px 'JetBrains Mono',monospace;fill:#374151">  • Subnormals (|x| &lt; 2^-126) → overflow, must be pre-scaled</text>
    <text x="0" y="92" style="font:500 9.5px 'JetBrains Mono',monospace;fill:#374151">  • Large values (|x| &gt; 2^126) → underflow, must be pre-scaled</text>
    <text x="0" y="112" style="font:600 10px 'Inter',sans-serif;fill:#991b1b">ptxas inserts range-reduction + post-correction wrapper:</text>
    <text x="0" y="132" style="font:500 9.5px 'JetBrains Mono',monospace;fill:#374151">  scaled_x = x × scale_factor      (bring into LUT range)</text>
    <text x="0" y="148" style="font:500 9.5px 'JetBrains Mono',monospace;fill:#374151">  raw_rcp  = MUFU.RCP(scaled_x)    (hardware lookup)</text>
    <text x="0" y="164" style="font:500 9.5px 'JetBrains Mono',monospace;fill:#374151">  result   = raw_rcp × scale_factor (undo scaling)</text>
  </g>

  <!-- ═══════ Top-Right: SASS Decomposition Pipeline ═══════ -->
  <rect x="548" y="64" width="502" height="200" rx="8" fill="#fef2f2" stroke="#fecaca" stroke-width="1"/>
  <text x="799" y="86" text-anchor="middle" style="font:700 11.5px 'Inter',sans-serif;fill:#991b1b">SASS Decomposition (7 instructions, 3 pipes)</text>

  <g transform="translate(564,96)">
    <!-- Instruction list with pipe colors -->
    <rect x="0" y="0" width="470" height="18" rx="3" fill="#dcfce7" opacity="0.5"/>
    <text x="4" y="13" style="font:600 9px 'JetBrains Mono',monospace;fill:#166534">[1] FSETP.GEU.AND P0  (subnormal test)</text>
    <text x="330" y="13" style="font:500 8.5px 'JetBrains Mono',monospace;fill:#6b7280">→ pipe_fmalite  4c</text>

    <rect x="0" y="20" width="470" height="18" rx="3" fill="#dcfce7" opacity="0.5"/>
    <text x="4" y="33" style="font:600 9px 'JetBrains Mono',monospace;fill:#166534">[2] FSETP.GT.AND  P1  (overflow test)</text>
    <text x="330" y="33" style="font:500 8.5px 'JetBrains Mono',monospace;fill:#6b7280">→ pipe_fmalite  4c</text>

    <rect x="0" y="40" width="470" height="18" rx="3" fill="#fef9c3" opacity="0.5"/>
    <text x="4" y="53" style="font:600 9px 'JetBrains Mono',monospace;fill:#854d0e">[3] FSEL (scale factor select if subnormal)</text>
    <text x="330" y="53" style="font:500 8.5px 'JetBrains Mono',monospace;fill:#6b7280">→ pipe_fmaheavy 5c</text>

    <rect x="0" y="60" width="470" height="18" rx="3" fill="#fef9c3" opacity="0.5"/>
    <text x="4" y="73" style="font:600 9px 'JetBrains Mono',monospace;fill:#854d0e">[4] FSEL (scale factor select if overflow)</text>
    <text x="330" y="73" style="font:500 8.5px 'JetBrains Mono',monospace;fill:#6b7280">→ pipe_fmaheavy 5c</text>

    <rect x="0" y="80" width="470" height="18" rx="3" fill="#dbeafe" opacity="0.5"/>
    <text x="4" y="93" style="font:600 9px 'JetBrains Mono',monospace;fill:#1e40af">[5] FMUL (pre-scale: x × scale_factor)</text>
    <text x="330" y="93" style="font:500 8.5px 'JetBrains Mono',monospace;fill:#6b7280">→ pipe_fma      4c</text>

    <rect x="0" y="100" width="470" height="18" rx="3" fill="#ede9fe" opacity="0.7"/>
    <text x="4" y="113" style="font:700 9px 'JetBrains Mono',monospace;fill:#5b21b6">[6] MUFU.RCP (hardware reciprocal LUT)</text>
    <text x="330" y="113" style="font:700 8.5px 'JetBrains Mono',monospace;fill:#5b21b6">→ pipe_xu      18c</text>

    <rect x="0" y="120" width="470" height="18" rx="3" fill="#dbeafe" opacity="0.5"/>
    <text x="4" y="133" style="font:600 9px 'JetBrains Mono',monospace;fill:#1e40af">[7] FMUL (post-scale: raw_rcp × scale)</text>
    <text x="330" y="133" style="font:500 8.5px 'JetBrains Mono',monospace;fill:#6b7280">→ pipe_fma      4c</text>

    <text x="0" y="160" style="font:italic 9px 'Inter',sans-serif;fill:#6b7280">Critical path: FSETP→FSEL→FMUL→MUFU→FMUL = 4+5+4+18+4 = 35c minimum</text>
  </g>

  <!-- ═══════ Middle: Timeline / Pipeline Overlap Diagram ═══════ -->
  <g transform="translate(30,270)">
    <rect x="0" y="0" width="1020" height="210" rx="8" fill="#f8fafc" stroke="#94a3b8" stroke-width="0.8"/>
    <text x="510" y="22" text-anchor="middle" style="font:700 12px 'Inter',sans-serif;fill:#1e293b">Pipeline Overlap at ILP=8 — Why Effective Depth = 5.6</text>

    <!-- Timeline axis -->
    <line x1="30" y1="180" x2="990" y2="180" stroke="#94a3b8" stroke-width="1"/>
    <text x="510" y="196" text-anchor="middle" style="font:500 8.5px 'Inter',sans-serif;fill:#6b7280">Time (cycles) →</text>

    <!-- Chain 0 -->
    <g transform="translate(40,38)">
      <text x="12" y="12" text-anchor="end" style="font:600 9px 'JetBrains Mono',monospace;fill:#374151">Chain 0</text>
      <rect x="30" y="0" width="36" height="16" rx="2" fill="#16a34a" opacity="0.7"/>
      <text x="48" y="12" text-anchor="middle" style="font:600 7px 'JetBrains Mono',monospace;fill:#fff">FSETP</text>
      <rect x="68" y="0" width="30" height="16" rx="2" fill="#ca8a04" opacity="0.7"/>
      <text x="83" y="12" text-anchor="middle" style="font:600 7px 'JetBrains Mono',monospace;fill:#fff">FSEL</text>
      <rect x="100" y="0" width="30" height="16" rx="2" fill="#2563eb" opacity="0.7"/>
      <text x="115" y="12" text-anchor="middle" style="font:600 7px 'JetBrains Mono',monospace;fill:#fff">FMUL</text>
      <rect x="132" y="0" width="140" height="16" rx="2" fill="#7c3aed" opacity="0.8"/>
      <text x="202" y="12" text-anchor="middle" style="font:700 7.5px 'JetBrains Mono',monospace;fill:#fff">MUFU.RCP (18c)</text>
      <rect x="274" y="0" width="30" height="16" rx="2" fill="#2563eb" opacity="0.7"/>
      <text x="289" y="12" text-anchor="middle" style="font:600 7px 'JetBrains Mono',monospace;fill:#fff">FMUL</text>
    </g>

    <!-- Chain 1 (offset by +72px x, +26px y per chain) -->
    <g transform="translate(112,64)">
      <text x="-60" y="12" text-anchor="end" style="font:600 9px 'JetBrains Mono',monospace;fill:#374151">Chain 1</text>
      <rect x="30" y="0" width="36" height="16" rx="2" fill="#16a34a" opacity="0.7"/>
      <text x="48" y="12" text-anchor="middle" style="font:600 7px 'JetBrains Mono',monospace;fill:#fff">FSETP</text>
      <rect x="68" y="0" width="30" height="16" rx="2" fill="#ca8a04" opacity="0.7"/>
      <text x="83" y="12" text-anchor="middle" style="font:600 7px 'JetBrains Mono',monospace;fill:#fff">FSEL</text>
      <rect x="100" y="0" width="30" height="16" rx="2" fill="#2563eb" opacity="0.7"/>
      <text x="115" y="12" text-anchor="middle" style="font:600 7px 'JetBrains Mono',monospace;fill:#fff">FMUL</text>
      <rect x="132" y="0" width="140" height="16" rx="2" fill="#7c3aed" opacity="0.8"/>
      <text x="202" y="12" text-anchor="middle" style="font:700 7.5px 'JetBrains Mono',monospace;fill:#fff">MUFU.RCP (18c)</text>
      <rect x="274" y="0" width="30" height="16" rx="2" fill="#2563eb" opacity="0.7"/>
      <text x="289" y="12" text-anchor="middle" style="font:600 7px 'JetBrains Mono',monospace;fill:#fff">FMUL</text>
    </g>

    <!-- Chain 2 -->
    <g transform="translate(184,90)">
      <text x="-132" y="12" text-anchor="end" style="font:600 9px 'JetBrains Mono',monospace;fill:#374151">Chain 2</text>
      <rect x="30" y="0" width="36" height="16" rx="2" fill="#16a34a" opacity="0.7"/>
      <text x="48" y="12" text-anchor="middle" style="font:600 7px 'JetBrains Mono',monospace;fill:#fff">FSETP</text>
      <rect x="68" y="0" width="30" height="16" rx="2" fill="#ca8a04" opacity="0.7"/>
      <text x="83" y="12" text-anchor="middle" style="font:600 7px 'JetBrains Mono',monospace;fill:#fff">FSEL</text>
      <rect x="100" y="0" width="30" height="16" rx="2" fill="#2563eb" opacity="0.7"/>
      <text x="115" y="12" text-anchor="middle" style="font:600 7px 'JetBrains Mono',monospace;fill:#fff">FMUL</text>
      <rect x="132" y="0" width="140" height="16" rx="2" fill="#7c3aed" opacity="0.8"/>
      <text x="202" y="12" text-anchor="middle" style="font:700 7.5px 'JetBrains Mono',monospace;fill:#fff">MUFU.RCP (18c)</text>
      <rect x="274" y="0" width="30" height="16" rx="2" fill="#2563eb" opacity="0.7"/>
      <text x="289" y="12" text-anchor="middle" style="font:600 7px 'JetBrains Mono',monospace;fill:#fff">FMUL</text>
    </g>

    <!-- Chain 3 -->
    <g transform="translate(256,116)">
      <text x="-204" y="12" text-anchor="end" style="font:600 9px 'JetBrains Mono',monospace;fill:#374151">Chain 3</text>
      <rect x="30" y="0" width="36" height="16" rx="2" fill="#16a34a" opacity="0.7"/>
      <text x="48" y="12" text-anchor="middle" style="font:600 7px 'JetBrains Mono',monospace;fill:#fff">FSETP</text>
      <rect x="68" y="0" width="30" height="16" rx="2" fill="#ca8a04" opacity="0.7"/>
      <text x="83" y="12" text-anchor="middle" style="font:600 7px 'JetBrains Mono',monospace;fill:#fff">FSEL</text>
      <rect x="100" y="0" width="30" height="16" rx="2" fill="#2563eb" opacity="0.7"/>
      <text x="115" y="12" text-anchor="middle" style="font:600 7px 'JetBrains Mono',monospace;fill:#fff">FMUL</text>
      <rect x="132" y="0" width="140" height="16" rx="2" fill="#7c3aed" opacity="0.8"/>
      <text x="202" y="12" text-anchor="middle" style="font:700 7.5px 'JetBrains Mono',monospace;fill:#fff">MUFU.RCP (18c)</text>
      <rect x="274" y="0" width="30" height="16" rx="2" fill="#2563eb" opacity="0.7"/>
      <text x="289" y="12" text-anchor="middle" style="font:600 7px 'JetBrains Mono',monospace;fill:#fff">FMUL</text>
    </g>

    <!-- Chain 4 -->
    <g transform="translate(328,142)">
      <text x="-276" y="12" text-anchor="end" style="font:600 9px 'JetBrains Mono',monospace;fill:#374151">Chain 4</text>
      <rect x="30" y="0" width="36" height="16" rx="2" fill="#16a34a" opacity="0.7"/>
      <text x="48" y="12" text-anchor="middle" style="font:600 7px 'JetBrains Mono',monospace;fill:#fff">FSETP</text>
      <rect x="68" y="0" width="30" height="16" rx="2" fill="#ca8a04" opacity="0.7"/>
      <text x="83" y="12" text-anchor="middle" style="font:600 7px 'JetBrains Mono',monospace;fill:#fff">FSEL</text>
      <rect x="100" y="0" width="30" height="16" rx="2" fill="#2563eb" opacity="0.7"/>
      <text x="115" y="12" text-anchor="middle" style="font:600 7px 'JetBrains Mono',monospace;fill:#fff">FMUL</text>
      <rect x="132" y="0" width="140" height="16" rx="2" fill="#7c3aed" opacity="0.8"/>
      <text x="202" y="12" text-anchor="middle" style="font:700 7.5px 'JetBrains Mono',monospace;fill:#fff">MUFU.RCP (18c)</text>
      <rect x="274" y="0" width="30" height="16" rx="2" fill="#2563eb" opacity="0.7"/>
      <text x="289" y="12" text-anchor="middle" style="font:600 7px 'JetBrains Mono',monospace;fill:#fff">FMUL</text>
    </g>

    <!-- Annotations -->
    <text x="670" y="60" style="font:italic 9px 'Inter',sans-serif;fill:#6b7280">Chain spacing ≈ 8.43 cyc (XU saturated issue rate)</text>
    
    <text x="670" y="98" style="font:600 9.5px 'Inter',sans-serif;fill:#1e293b">Key: wrapper FMAs of chain N</text>
    <text x="670" y="114" style="font:600 9.5px 'Inter',sans-serif;fill:#1e293b">overlap with MUFU of chain N-1 on separate P0 pipe → free!</text>

    <!-- Legend -->
    <g transform="translate(690,136)">
      <rect x="0" y="0" width="12" height="10" rx="2" fill="#16a34a" opacity="0.7"/>
      <text x="16" y="9" style="font:500 8px 'Inter',sans-serif;fill:#374151">Range test (P0-lite)</text>
      <rect x="130" y="0" width="12" height="10" rx="2" fill="#ca8a04" opacity="0.7"/>
      <text x="146" y="9" style="font:500 8px 'Inter',sans-serif;fill:#374151">Select (P0-heavy)</text>
      <rect x="0" y="14" width="12" height="10" rx="2" fill="#2563eb" opacity="0.7"/>
      <text x="16" y="23" style="font:500 8px 'Inter',sans-serif;fill:#374151">Scale FMA (P0)</text>
      <rect x="130" y="14" width="12" height="10" rx="2" fill="#7c3aed" opacity="0.8"/>
      <text x="146" y="23" style="font:500 8px 'Inter',sans-serif;fill:#374151">MUFU (XU pipe)</text>
    </g>
  </g>

  <!-- ═══════ Bottom: ILP Scaling Curve ═══════ -->
  <rect x="30" y="486" width="500" height="235" rx="8" fill="#f0fdf4" stroke="#16a34a" stroke-width="1"/>
  <text x="280" y="508" text-anchor="middle" style="font:700 11.5px 'Inter',sans-serif;fill:#166534">ILP Scaling Curve (measured)</text>

  <!-- Y-axis -->
  <line x1="80" y1="524" x2="80" y2="680" stroke="#94a3b8" stroke-width="0.8"/>
  <text x="70" y="530" text-anchor="end" style="font:500 8px 'JetBrains Mono',monospace;fill:#6b7280">50c</text>
  <text x="70" y="569" text-anchor="end" style="font:500 8px 'JetBrains Mono',monospace;fill:#6b7280">40c</text>
  <text x="70" y="608" text-anchor="end" style="font:500 8px 'JetBrains Mono',monospace;fill:#6b7280">25c</text>
  <text x="70" y="647" text-anchor="end" style="font:500 8px 'JetBrains Mono',monospace;fill:#6b7280">12c</text>
  <text x="70" y="680" text-anchor="end" style="font:500 8px 'JetBrains Mono',monospace;fill:#6b7280">8c</text>

  <!-- X-axis -->
  <line x1="80" y1="680" x2="490" y2="680" stroke="#94a3b8" stroke-width="0.8"/>
  <text x="120" y="696" text-anchor="middle" style="font:500 8px 'JetBrains Mono',monospace;fill:#6b7280">1</text>
  <text x="200" y="696" text-anchor="middle" style="font:500 8px 'JetBrains Mono',monospace;fill:#6b7280">2</text>
  <text x="280" y="696" text-anchor="middle" style="font:500 8px 'JetBrains Mono',monospace;fill:#6b7280">4</text>
  <text x="360" y="696" text-anchor="middle" style="font:500 8px 'JetBrains Mono',monospace;fill:#6b7280">6</text>
  <text x="440" y="696" text-anchor="middle" style="font:500 8px 'JetBrains Mono',monospace;fill:#6b7280">8</text>
  <text x="280" y="712" text-anchor="middle" style="font:500 9px 'Inter',sans-serif;fill:#6b7280">ILP (independent chains)</text>

  <!-- Data points and line (cyc/op: 46.8, 23.94, 12.66, 9.68, 8.43) -->
  <!-- Y mapping: 50c=524, 8c=680; range=42c maps to 156px; scale = 156/42 = 3.71 px/cyc -->
  <!-- ILP=1: 46.8c → 524 + (50-46.8)*3.71 = 524+11.9 = 536 -->
  <!-- ILP=2: 23.94c → 524 + (50-23.94)*3.71 = 524+96.6 = 621 -->
  <!-- ILP=4: 12.66c → 524 + (50-12.66)*3.71 = 524+138.5 = 663 -->
  <!-- ILP=6: 9.68c → 524 + (50-9.68)*3.71 = 524+149.6 = 674 -->
  <!-- ILP=8: 8.43c → 524 + (50-8.43)*3.71 = 524+154.2 = 678 -->
  <polyline points="120,536 200,621 280,663 360,674 440,678" fill="none" stroke="#16a34a" stroke-width="2"/>
  <circle cx="120" cy="536" r="4" fill="#16a34a"/>
  <circle cx="200" cy="621" r="4" fill="#16a34a"/>
  <circle cx="280" cy="663" r="4" fill="#16a34a"/>
  <circle cx="360" cy="674" r="4" fill="#16a34a"/>
  <circle cx="440" cy="678" r="4" fill="#dc2626"/>

  <!-- Data labels -->
  <text x="120" y="528" text-anchor="middle" style="font:600 8px 'JetBrains Mono',monospace;fill:#166534">46.8c</text>
  <text x="200" y="614" text-anchor="middle" style="font:600 8px 'JetBrains Mono',monospace;fill:#166534">23.9c</text>
  <text x="280" y="656" text-anchor="middle" style="font:600 8px 'JetBrains Mono',monospace;fill:#166534">12.7c</text>
  <text x="370" y="668" text-anchor="middle" style="font:600 8px 'JetBrains Mono',monospace;fill:#166534">9.7c</text>
  <text x="455" y="672" text-anchor="middle" style="font:700 8px 'JetBrains Mono',monospace;fill:#dc2626">8.4c ★</text>

  <!-- Saturation line -->
  <line x1="80" y1="678" x2="490" y2="678" stroke="#dc2626" stroke-width="0.8" stroke-dasharray="4,3"/>
  <text x="454" y="688" style="font:italic 8px 'Inter',sans-serif;fill:#dc2626">saturation floor</text>

  <!-- ═══════ Bottom-Right: Key Metrics ═══════ -->
  <rect x="548" y="486" width="502" height="235" rx="8" fill="#fef3c7" stroke="#d97706" stroke-width="1"/>
  <text x="799" y="508" text-anchor="middle" style="font:700 11.5px 'Inter',sans-serif;fill:#92400e">Reconciliation: Two Pipeline Depths</text>

  <g transform="translate(568,520)">
    <text x="0" y="14" style="font:700 10px 'Inter',sans-serif;fill:#5b21b6">Bare MUFU unit (pipe_xu):</text>
    <text x="0" y="34" style="font:500 9.5px 'JetBrains Mono',monospace;fill:#374151">  Latency: ~18 cyc</text>
    <text x="0" y="50" style="font:500 9.5px 'JetBrains Mono',monospace;fill:#374151">  Issue rate: ~8-9 cyc</text>
    <text x="0" y="66" style="font:500 9.5px 'JetBrains Mono',monospace;fill:#374151">  Internal depth: 18/9 ≈ 2 stages</text>

    <text x="0" y="94" style="font:700 10px 'Inter',sans-serif;fill:#991b1b">Full PTX expansion (with wrapper):</text>
    <text x="0" y="114" style="font:500 9.5px 'JetBrains Mono',monospace;fill:#374151">  Latency: ~46.8 cyc</text>
    <text x="0" y="130" style="font:500 9.5px 'JetBrains Mono',monospace;fill:#374151">  Saturated throughput: 8.43 cyc/op</text>
    <text x="0" y="146" style="font:500 9.5px 'JetBrains Mono',monospace;fill:#374151">  Effective depth: 46.8/8.43 ≈ 5.6</text>

    <rect x="0" y="160" width="460" height="28" rx="4" fill="#78350f" opacity="0.9"/>
    <text x="230" y="178" text-anchor="middle" style="font:700 10px 'Inter',sans-serif;fill:#ffffff">Resolution: depth=5.6 is the COMPOSITE pipeline (wrapper + XU)</text>
  </g>
</svg>
